<!-- SVG Downloaded from https://home.nest.com/ -->
<svg xmlns="http://www.w3.org/2000/svg" width="120" height="112" viewBox="0 0 120 112">
  <path fill="#fff" d="M119.63 49.98l-9.993 12.18-10.824-8.96V112H83.96V77.84c0-3.36-.625-6.51-1.872-9.448-1.25-2.94-2.963-5.51-5.134-7.7-2.177-2.194-4.722-3.92-7.63-5.18-2.92-1.26-6.042-1.892-9.37-1.892-3.333 0-6.456.63-9.366 1.89-2.917 1.26-5.46 2.988-7.64 5.18-2.17 2.193-3.882 4.76-5.13 7.702-1.25 2.938-1.875 6.088-1.875 9.447V112H20.815V53.2l-10.82 8.96L0 49.98 59.818 0 86.46 22.257v-7.7h12.354v18.064l20.816 17.36zM73 112H47.046V77.84c0-1.77.347-3.45 1.042-5.038.688-1.59 1.617-2.963 2.775-4.132 1.153-1.165 2.52-2.1 4.088-2.8 1.572-.698 3.24-1.05 5-1.05 1.758 0 3.445.352 5.066 1.05 1.617.7 3.003 1.635 4.162 2.8 1.16 1.17 2.08 2.542 2.773 4.132.694 1.588 1.043 3.268 1.043 5.037V112z"/>
</svg>