<!-- SVG Downloaded from https://home.nest.com/ -->
<svg xmlns="http://www.w3.org/2000/svg" width="22" height="22" viewBox="0 0 22 22">
  <g>
    <path opacity=".6" fill="#9BA7AE" d="M9.593 13.988c-.424.88-1.034 1.567-1.826 2.05-.79.488-1.67.73-2.64.73-.712 0-1.38-.13-2-.395-.622-.27-1.16-.63-1.62-1.09-.46-.455-.827-.994-1.096-1.617-.272-.622-.41-1.29-.41-2.003 0-.696.132-1.354.396-1.978.264-.617.623-1.157 1.083-1.617s1-.825 1.62-1.096c.62-.275 1.29-.41 2-.41.92 0 1.762.22 2.525.664.767.443 1.37 1.027 1.812 1.757l10.258-.02.843.812c.22.225.427.433.624.64.197.203.336.343.42.405.136.14.206.258.206.36 0 .1-.062.218-.18.36l-1.148 1.123-.944.965-1.225-1.224-1.248 1.252-1.225-1.304-1.3 1.304-1.228-1.252-1.71 1.584H9.594zm-6.813-.92c.39 0 .725-.136.997-.405.27-.275.407-.606.407-1 0-.388-.14-.72-.42-.994-.282-.27-.62-.405-1.01-.405s-.72.135-.993.404c-.27.274-.406.605-.406.993 0 .394.138.73.418 1.01.284.28.618.41 1.008.394"/>
  </g>
</svg>