<!-- SVG Downloaded from https://home.nest.com/ -->
<svg xmlns="http://www.w3.org/2000/svg" width="22" height="22" viewBox="0 0 22 22">
  <path opacity=".6" fill="#9BA7AE" d="M18.572 14.558c1.042.654 1.565 1.782 1.565 3.38 0 .303-1.027.572-3.08.808-2.053.203-3.988.303-5.806.303-1.85 0-3.792-.1-5.83-.304-2.035-.218-3.053-.49-3.053-.807 0-1.6.52-2.73 1.565-3.382.286-.185 1.102-.48 2.447-.884 1.33-.404 2.162-.782 2.5-1.136.352-.37.428-.824.226-1.364l-.252-.302c-.287-.354-.523-.81-.708-1.363-.083.05-.143.033-.176-.052-.032-.083-.06-.202-.087-.353-.024-.152-.05-.33-.076-.53-.024-.202-.07-.404-.138-.605-.07-.185-.103-.346-.103-.48-.016-.27.035-.404.153-.404h.1V6.91c-.1-.37-.15-.717-.15-1.035 0-.758.16-1.447.478-2.07.336-.64.784-.96 1.34-.96l.3.152-.1-.202c1.28-.404 2.558-.27 3.836.404.86.47 1.294 1.328 1.313 2.573 0 .286-.05.68-.15 1.186v.126h.1c.117 0 .167.134.15.403 0 .134-.033.294-.1.48-.067.184-.115.38-.14.59-.024.21-.05.397-.075.556-.025.16-.06.28-.1.353-.043.075-.097.088-.167.038-.184.555-.422 1.01-.706 1.363l-.253.303c-.204.54-.125.994.228 1.364.32.354 1.15.73 2.5 1.136 1.346.404 2.16.7 2.447.885"/>
</svg>